<?xml version="1.0" standalone="no"?>
<!DOCTYPE svg PUBLIC "-//W3C//DTD SVG 20010904//EN"
 "http://www.w3.org/TR/2001/REC-SVG-20010904/DTD/svg10.dtd">
<svg version="1.0" xmlns="http://www.w3.org/2000/svg"
 width="230.000000pt" height="230.000000pt" viewBox="0 0 230.000000 230.000000"
 preserveAspectRatio="xMidYMid meet">

<g transform="translate(0.000000,230.000000) scale(0.100000,-0.100000)"
fill="#000000" stroke="none">
<path d="M980 2253 c-332 -2 -493 -6 -510 -14 -62 -28 -77 -39 -106 -82 -53
-76 -53 -80 -44 -1027 2 -283 1 -594 -4 -690 -8 -185 0 -254 39 -313 22 -34
85 -74 137 -87 29 -8 250 -10 693 -8 718 3 681 0 759 68 76 67 71 1 74 909 l3
814 -213 214 -213 213 -65 3 c-36 2 -283 2 -550 0z m500 -122 c5 -11 10 -86
10 -168 1 -163 10 -198 63 -237 25 -19 45 -21 187 -24 137 -3 159 -6 165 -20
3 -9 6 -342 5 -739 -1 -769 -1 -771 -49 -800 -15 -9 -179 -12 -676 -13 -724 0
-696 -2 -735 63 -19 31 -20 57 -20 961 l0 928 34 34 34 34 486 0 c470 0 486
-1 496 -19z m248 -171 c67 -66 122 -124 122 -128 0 -15 -60 -30 -100 -25 -22
3 -53 0 -69 -6 -34 -15 -63 -1 -80 36 -12 27 -15 243 -3 243 4 0 62 -54 130
-120z"/>
<path d="M1572 1523 c-51 -5 -63 -25 -34 -56 38 -41 26 -59 -180 -274 -44 -47
-87 -83 -98 -83 -10 0 -52 31 -92 70 -40 38 -81 69 -91 70 -21 0 -437 -412
-437 -433 0 -8 9 -22 20 -32 19 -17 24 -14 214 169 106 102 198 186 204 186 5
0 40 -28 77 -62 107 -100 102 -98 143 -52 20 21 100 108 180 191 l144 153 41
-36 c41 -35 42 -35 48 -12 3 13 9 65 13 116 l8 92 -59 -2 c-32 -1 -77 -3 -101
-5z"/>
<path d="M1514 1072 c-12 -9 -26 -26 -31 -37 -14 -28 -11 -711 3 -725 7 -7 50
-10 110 -8 l99 3 3 381 2 381 -25 11 c-40 18 -136 15 -161 -6z"/>
<path d="M1093 805 c-23 -16 -23 -18 -23 -261 l0 -245 118 3 117 3 3 248 c2
193 0 248 -10 251 -7 3 -51 7 -98 10 -68 5 -89 3 -107 -9z"/>
<path d="M680 564 c-9 -10 -15 -41 -16 -78 -1 -34 -5 -78 -9 -99 -5 -26 -3
-47 6 -63 12 -24 15 -25 118 -22 l106 3 3 133 3 132 -63 0 c-35 0 -79 3 -98 6
-27 4 -40 2 -50 -12z"/>
</g>
</svg>
